####
#
# OBJ File Generated by Meshlab
#
####
# Object mesh_aligned.obj
#
# Vertices: 8
# Faces: 12
#
####
vn 0.535397 1.030474 -0.281761
v 0.024332 0.050577 -0.017908
vn 0.620778 1.184682 0.176410
v 0.024474 0.050287 0.010090
vn 0.962678 -0.293857 -0.342503
v 0.043552 -0.032216 -0.018865
vn 0.656121 -0.894009 0.321932
v 0.043695 -0.032506 0.009133
vn -0.656121 0.894009 -0.321932
v -0.046777 0.034067 -0.017718
vn -0.962678 0.293857 0.342503
v -0.046634 0.033776 0.010280
vn -0.620778 -1.184682 -0.176410
v -0.027556 -0.048726 -0.018675
vn -0.535397 -1.030474 0.281761
v -0.027414 -0.049016 0.009323
# 8 vertices, 0 vertices normals

f 1//1 2//2 3//3
f 4//4 3//3 2//2
f 1//1 3//3 5//5
f 7//7 5//5 3//3
f 1//1 5//5 2//2
f 6//6 2//2 5//5
f 8//8 6//6 7//7
f 5//5 7//7 6//6
f 8//8 7//7 4//4
f 3//3 4//4 7//7
f 8//8 4//4 6//6
f 2//2 6//6 4//4
# 12 faces, 0 coords texture

# End of File