####
#
# OBJ File Generated by Meshlab
#
####
# Object mesh_aligned.obj
#
# Vertices: 22
# Faces: 40
#
####
vn -0.119742 6.281813 0.054010
v -0.000507 0.063445 0.001158 0.752941 0.752941 0.752941
vn 0.119742 -6.281813 -0.054010
v 0.001799 -0.057528 0.000118 0.752941 0.752941 0.752941
vn 2.905407 2.565151 0.471481
v 0.008389 0.063603 0.002513 0.752941 0.752941 0.752941
vn 2.605484 2.575101 -1.350555
v 0.007486 0.063633 -0.002975 0.752941 0.752941 0.752941
vn 1.292060 2.561224 -2.648472
v 0.003530 0.063592 -0.006885 0.752941 0.752941 0.752941
vn -0.533182 2.528822 -2.926511
v -0.001968 0.063494 -0.007722 0.752941 0.752941 0.752941
vn -2.173061 2.490272 -2.078471
v -0.006908 0.063378 -0.005168 0.752941 0.752941 0.752941
vn -3.001201 2.460297 -0.428273
v -0.009403 0.063288 -0.000197 0.752941 0.752941 0.752941
vn -2.701278 2.450349 1.393763
v -0.008499 0.063258 0.005291 0.752941 0.752941 0.752941
vn -1.387854 2.464226 2.691680
v -0.004543 0.063299 0.009201 0.752941 0.752941 0.752941
vn 0.437388 2.496628 2.969719
v 0.000955 0.063397 0.010038 0.752941 0.752941 0.752941
vn 2.077267 2.535178 2.121679
v 0.005895 0.063513 0.007484 0.752941 0.752941 0.752941
vn 3.001201 -2.460297 0.428273
v 0.010695 -0.057370 0.001473 0.752941 0.752941 0.752941
vn 2.701278 -2.450349 -1.393763
v 0.009792 -0.057340 -0.004015 0.752941 0.752941 0.752941
vn 1.387854 -2.464226 -2.691680
v 0.005836 -0.057382 -0.007925 0.752941 0.752941 0.752941
vn -0.437388 -2.496628 -2.969719
v 0.000338 -0.057480 -0.008762 0.752941 0.752941 0.752941
vn -2.077268 -2.535178 -2.121679
v -0.004602 -0.057596 -0.006208 0.752941 0.752941 0.752941
vn -2.905407 -2.565151 -0.471481
v -0.007097 -0.057686 -0.001237 0.752941 0.752941 0.752941
vn -2.605484 -2.575101 1.350555
v -0.006193 -0.057716 0.004251 0.752941 0.752941 0.752941
vn -1.292060 -2.561224 2.648472
v -0.002237 -0.057674 0.008161 0.752941 0.752941 0.752941
vn 0.533182 -2.528822 2.926511
v 0.003261 -0.057577 0.008998 0.752941 0.752941 0.752941
vn 2.173061 -2.490272 2.078471
v 0.008201 -0.057460 0.006444 0.752941 0.752941 0.752941
# 22 vertices, 0 vertices normals

f 1//1 3//3 4//4
f 2//2 14//14 13//13
f 1//1 4//4 5//5
f 2//2 15//15 14//14
f 1//1 5//5 6//6
f 2//2 16//16 15//15
f 1//1 6//6 7//7
f 2//2 17//17 16//16
f 1//1 7//7 8//8
f 2//2 18//18 17//17
f 1//1 8//8 9//9
f 2//2 19//19 18//18
f 1//1 9//9 10//10
f 2//2 20//20 19//19
f 1//1 10//10 11//11
f 2//2 21//21 20//20
f 1//1 11//11 12//12
f 2//2 22//22 21//21
f 1//1 12//12 3//3
f 2//2 13//13 22//22
f 13//13 4//4 3//3
f 13//13 14//14 4//4
f 14//14 5//5 4//4
f 14//14 15//15 5//5
f 15//15 6//6 5//5
f 15//15 16//16 6//6
f 16//16 7//7 6//6
f 16//16 17//17 7//7
f 17//17 8//8 7//7
f 17//17 18//18 8//8
f 18//18 9//9 8//8
f 18//18 19//19 9//9
f 19//19 10//10 9//9
f 19//19 20//20 10//10
f 20//20 11//11 10//10
f 20//20 21//21 11//11
f 21//21 12//12 11//11
f 21//21 22//22 12//12
f 22//22 3//3 12//12
f 22//22 13//13 3//3
# 40 faces, 0 coords texture

# End of File